<svg width="80" height="56" viewBox="0 0 80 56" fill="none" xmlns="http://www.w3.org/2000/svg">
<path d="M8 0C5.87827 0 3.84344 0.842854 2.34315 2.34315C0.842854 3.84344 0 5.87827 0 8V48C0 50.1217 0.842854 52.1566 2.34315 53.6569C3.84344 55.1572 5.87827 56 8 56H72C74.1217 56 76.1566 55.1572 77.6569 53.6569C79.1571 52.1566 80 50.1217 80 48V8C80 5.87827 79.1571 3.84344 77.6569 2.34315C76.1566 0.842854 74.1217 0 72 0H8ZM8 8H56V48H8V8ZM68 8C69.0609 8 70.0783 8.42143 70.8284 9.17157C71.5786 9.92172 72 10.9391 72 12C72 13.0609 71.5786 14.0783 70.8284 14.8284C70.0783 15.5786 69.0609 16 68 16C66.9391 16 65.9217 15.5786 65.1716 14.8284C64.4214 14.0783 64 13.0609 64 12C64 10.9391 64.4214 9.92172 65.1716 9.17157C65.9217 8.42143 66.9391 8 68 8ZM44 16V40H52V16H44ZM68 24C69.0609 24 70.0783 24.4214 70.8284 25.1716C71.5786 25.9217 72 26.9391 72 28C72 29.0609 71.5786 30.0783 70.8284 30.8284C70.0783 31.5786 69.0609 32 68 32C66.9391 32 65.9217 31.5786 65.1716 30.8284C64.4214 30.0783 64 29.0609 64 28C64 26.9391 64.4214 25.9217 65.1716 25.1716C65.9217 24.4214 66.9391 24 68 24Z" fill="#D46240"/>
</svg>
