<svg width="45" height="56" viewBox="0 0 45 56" fill="none" xmlns="http://www.w3.org/2000/svg">
<path d="M0 5.6C0 4.11479 0.589998 2.69041 1.6402 1.6402C2.69041 0.589998 4.11479 0 5.6 0H39.2C40.6852 0 42.1096 0.589998 43.1598 1.6402C44.21 2.69041 44.8 4.11479 44.8 5.6V50.4C44.8 51.8852 44.21 53.3096 43.1598 54.3598C42.1096 55.41 40.6852 56 39.2 56H5.6C4.11479 56 2.69041 55.41 1.6402 54.3598C0.589998 53.3096 0 51.8852 0 50.4V5.6ZM39.2 5.6H5.6V50.4H39.2V5.6Z" fill="#D46240"/>
<path d="M22.4 28C20.9148 28 19.4904 28.59 18.4402 29.6402C17.39 30.6904 16.8 32.1147 16.8 33.6C16.8 35.0852 17.39 36.5095 18.4402 37.5597C19.4904 38.61 20.9148 39.2 22.4 39.2C23.8852 39.2 25.3096 38.61 26.3598 37.5597C27.41 36.5095 28 35.0852 28 33.6C28 32.1147 27.41 30.6904 26.3598 29.6402C25.3096 28.59 23.8852 28 22.4 28ZM11.2 33.6C11.2 30.6295 12.38 27.7808 14.4804 25.6804C16.5808 23.5799 19.4296 22.4 22.4 22.4C25.3704 22.4 28.2192 23.5799 30.3196 25.6804C32.42 27.7808 33.6 30.6295 33.6 33.6C33.6 36.5704 32.42 39.4191 30.3196 41.5195C28.2192 43.62 25.3704 44.7999 22.4 44.7999C19.4296 44.7999 16.5808 43.62 14.4804 41.5195C12.38 39.4191 11.2 36.5704 11.2 33.6ZM26.6 15.4C26.6 16.5139 26.1575 17.5821 25.3699 18.3698C24.5822 19.1575 23.5139 19.6 22.4 19.6C21.2861 19.6 20.2178 19.1575 19.4302 18.3698C18.6425 17.5821 18.2 16.5139 18.2 15.4C18.2 14.286 18.6425 13.2178 19.4302 12.4301C20.2178 11.6424 21.2861 11.2 22.4 11.2C23.5139 11.2 24.5822 11.6424 25.3699 12.4301C26.1575 13.2178 26.6 14.286 26.6 15.4Z" fill="#D46240"/>
</svg>
